<svg width="205" height="71" viewBox="0 0 205 71" fill="none" xmlns="http://www.w3.org/2000/svg">
<path d="M38.7536 70.9935C38.3171 70.9935 37.8872 70.8697 37.5028 70.6157L1.02957 46.6563C0.371634 46.2263 -0.0127076 45.4967 0.000320919 44.7085C0.0133494 43.9203 0.423747 43.2102 1.09471 42.7998L7.05525 39.1779L8.74895 41.9595L4.11081 44.7802L38.734 67.5279L71.0577 44.715L38.962 21.6937L20.9241 33.5822L15.9928 37.0152L14.1297 34.3444L19.0936 30.8853L37.7243 18.6059C38.506 18.0913 39.5483 18.1109 40.3105 18.6581L74.0673 42.8715C74.6666 43.3014 75.0183 43.9985 75.0183 44.7346C75.0183 45.4707 74.6535 46.1612 74.0542 46.5911L40.0629 70.5766C39.6655 70.8567 39.2095 71 38.747 71L38.7536 70.9935Z" fill="url(#paint0_linear_2733_32)"/>
<path d="M39.153 62.1993C38.7165 62.1993 38.2866 62.0755 37.9023 61.8214L1.39644 37.836C0.751529 37.4126 0.367188 36.7025 0.367188 35.9338C0.367188 35.1651 0.751528 34.4551 1.38992 34.0317L38.1303 9.81823C38.912 9.3036 39.9542 9.32315 40.7099 9.87034L74.4667 34.0838C75.066 34.5137 75.4178 35.2107 75.4178 35.9469C75.4178 36.683 75.053 37.38 74.4537 37.8034L40.4624 61.7889C40.065 62.069 39.609 62.2123 39.1465 62.2123L39.153 62.1993ZM4.42556 35.9273L39.1334 58.7272L71.4571 35.9143L39.3614 12.8929L4.41905 35.9208L4.42556 35.9273Z" fill="url(#paint1_linear_2733_32)"/>
<path d="M39.153 52.7536C38.7165 52.7536 38.2866 52.6298 37.9023 52.3758L1.39644 28.3903C0.751529 27.9669 0.367188 27.2569 0.367188 26.4882C0.367188 25.7195 0.751528 25.0094 1.38992 24.586L38.1302 0.372579C38.912 -0.142046 39.9542 -0.122502 40.7164 0.424694L74.4862 24.6446C75.079 25.0681 75.4308 25.7586 75.4373 26.4817C75.4373 27.2113 75.0921 27.9018 74.5058 28.3317L68.4671 32.7614L66.5389 30.1362L71.4897 26.5012L39.3549 3.45382L4.41253 26.4817L39.1269 49.2815L55.7708 37.5363L60.7477 34.3118L62.5196 37.0478L57.5948 40.2397L40.4623 52.3302C40.065 52.6103 39.609 52.7471 39.1465 52.7471L39.153 52.7536Z" fill="url(#paint2_linear_2733_32)"/>
<path d="M103.12 30.6443L105.113 20.8859H107.348L104.357 33.8558H102.201L99.7324 24.3906L97.2114 33.8558H95.0486L92.0586 20.8859H94.293L96.3059 30.6312L98.7813 20.8859H100.67L103.12 30.6443ZM116.604 28.0646H111.276V32.0513H117.503V33.8493H109.022V20.8794H117.438V22.6969H111.276V26.2797H116.604V28.0581V28.0646ZM123.933 33.8558V20.8859H128.375C129.841 20.8859 130.955 21.1791 131.724 21.7653C132.492 22.3516 132.87 23.2311 132.87 24.3906C132.87 24.9834 132.707 25.5175 132.388 25.9931C132.069 26.4686 131.6 26.8334 130.981 27.1005C131.685 27.2894 132.219 27.6477 132.603 28.1754C132.988 28.6965 133.183 29.3284 133.183 30.0645C133.183 31.2827 132.792 32.2142 132.01 32.8721C131.235 33.5236 130.115 33.8493 128.662 33.8493H123.933V33.8558ZM126.187 27.9995V32.0513H128.688C129.392 32.0513 129.945 31.8755 130.343 31.5237C130.74 31.1719 130.942 30.6833 130.942 30.0645C130.942 28.716 130.252 28.0255 128.877 27.9995H126.187ZM126.187 26.3449H128.395C129.099 26.3449 129.639 26.1885 130.037 25.8758C130.434 25.5566 130.636 25.1072 130.636 24.5209C130.636 23.8825 130.454 23.4134 130.082 23.1333C129.717 22.8467 129.151 22.7034 128.382 22.7034H126.193V26.3449H126.187ZM144.954 20.8859V29.5499C144.954 30.9244 144.511 32.0188 143.625 32.8265C142.746 33.6278 141.573 34.0317 140.108 34.0317C138.642 34.0317 137.443 33.6343 136.57 32.8461C135.698 32.0513 135.261 30.9504 135.261 29.5434V20.8859H137.508V29.5629C137.508 30.4293 137.73 31.0937 138.166 31.5497C138.609 32.0057 139.254 32.2337 140.108 32.2337C141.84 32.2337 142.707 31.3217 142.707 29.4912V20.8859H144.948H144.954ZM149.768 33.8558H147.527V20.8859H149.768V33.8558ZM154.817 32.0513H160.706V33.8493H152.563V20.8794H154.817V32.0448V32.0513ZM162.458 33.8558V20.8859H166.288C167.435 20.8859 168.451 21.14 169.337 21.6546C170.229 22.1627 170.913 22.8923 171.402 23.8304C171.891 24.7684 172.132 25.8433 172.132 27.0549V27.7063C172.132 28.9375 171.884 30.0189 171.389 30.9504C170.9 31.882 170.203 32.5985 169.298 33.1066C168.392 33.6082 167.357 33.8623 166.191 33.8623H162.458V33.8558ZM164.712 22.7034V32.0579H166.184C167.363 32.0579 168.269 31.6865 168.901 30.9504C169.539 30.2078 169.858 29.146 169.871 27.765V27.0419C169.871 25.6348 169.565 24.56 168.953 23.8173C168.34 23.0747 167.454 22.7034 166.288 22.7034H164.712Z" fill="white"/>
<path d="M102.456 48.0503C102.306 49.4183 101.818 50.4606 100.984 51.1837C100.157 51.9067 99.0558 52.2715 97.6813 52.2715C96.7171 52.2715 95.8703 52.0305 95.1277 51.5485C94.3916 51.0664 93.8248 50.3889 93.4209 49.5095C93.0171 48.6236 92.8151 47.6139 92.8086 46.4804V44.7997C92.8086 43.6467 93.0105 42.624 93.4144 41.738C93.8183 40.8456 94.3981 40.1616 95.1537 39.6795C95.9159 39.1909 96.7888 38.9499 97.7725 38.9499C99.16 38.9499 100.254 39.3277 101.056 40.0834C101.863 40.8325 102.332 41.8683 102.463 43.1907H101.362C101.088 40.9889 99.8896 39.888 97.7725 39.888C96.5999 39.888 95.6553 40.3244 94.9583 41.2038C94.2613 42.0833 93.916 43.2949 93.916 44.8453V46.4283C93.916 47.9265 94.2548 49.1187 94.9322 50.0111C95.6162 50.9036 96.5347 51.3465 97.6943 51.3465C98.8538 51.3465 99.7007 51.0729 100.287 50.5257C100.867 49.972 101.225 49.1512 101.362 48.0503H102.463H102.456ZM114.729 46.311C114.729 47.5031 114.521 48.5519 114.104 49.4574C113.693 50.3629 113.107 51.0534 112.338 51.5419C111.57 52.0305 110.69 52.2715 109.687 52.2715C108.176 52.2715 106.951 51.7309 106.019 50.6495C105.088 49.5616 104.619 48.1024 104.619 46.2589V44.9235C104.619 43.7444 104.827 42.6956 105.244 41.7901C105.668 40.8781 106.261 40.1746 107.023 39.686C107.791 39.1909 108.671 38.9499 109.667 38.9499C110.664 38.9499 111.544 39.1909 112.306 39.673C113.074 40.1551 113.661 40.8325 114.078 41.712C114.495 42.5914 114.709 43.6076 114.729 44.7671V46.3175V46.311ZM113.635 44.9039C113.635 43.3405 113.283 42.1224 112.573 41.2364C111.869 40.3505 110.899 39.9075 109.667 39.9075C108.436 39.9075 107.498 40.3505 106.782 41.2429C106.072 42.1289 105.713 43.3666 105.713 44.956V46.311C105.713 47.8484 106.072 49.0665 106.782 49.972C107.492 50.871 108.462 51.314 109.687 51.314C110.912 51.314 111.895 50.871 112.592 49.985C113.289 49.0926 113.635 47.8549 113.635 46.2719V44.8974V44.9039ZM127.171 52.0957H126.077L118.625 40.9954V52.0957H117.517V39.1258H118.625L126.09 50.2326V39.1258H127.178V52.0957H127.171ZM137.829 48.9037C137.829 48.1871 137.574 47.6204 137.073 47.2035C136.565 46.78 135.646 46.3827 134.304 46.0114C132.962 45.6335 131.985 45.2166 131.366 44.7737C130.487 44.1418 130.051 43.321 130.051 42.2982C130.051 41.2755 130.454 40.5003 131.269 39.8815C132.089 39.2561 133.132 38.9434 134.402 38.9434C135.262 38.9434 136.031 39.1128 136.708 39.445C137.392 39.7772 137.92 40.2397 138.291 40.8325C138.662 41.4253 138.851 42.0898 138.851 42.8194H137.744C137.744 41.9334 137.444 41.2234 136.838 40.6892C136.233 40.1485 135.418 39.8815 134.396 39.8815C133.373 39.8815 132.617 40.1029 132.024 40.5524C131.438 40.9889 131.145 41.5686 131.145 42.2787C131.145 42.9366 131.412 43.4773 131.94 43.8877C132.467 44.3046 133.314 44.6694 134.48 44.9951C135.646 45.3078 136.526 45.64 137.125 45.9853C137.724 46.324 138.174 46.7279 138.48 47.2035C138.786 47.679 138.936 48.2392 138.936 48.8841C138.936 49.9069 138.526 50.7277 137.705 51.34C136.89 51.9589 135.816 52.265 134.48 52.265C133.568 52.265 132.728 52.1022 131.959 51.7765C131.197 51.4507 130.624 50.9948 130.22 50.402C129.829 49.8157 129.634 49.1382 129.634 48.3825H130.728C130.728 49.2945 131.067 50.0176 131.751 50.5453C132.435 51.0729 133.34 51.34 134.474 51.34C135.483 51.34 136.291 51.1185 136.904 50.669C137.516 50.2261 137.822 49.6333 137.822 48.8972L137.829 48.9037ZM150.909 46.311C150.909 47.5031 150.701 48.5519 150.284 49.4574C149.873 50.3629 149.287 51.0534 148.518 51.5419C147.75 52.0305 146.87 52.2715 145.867 52.2715C144.356 52.2715 143.131 51.7309 142.2 50.6495C141.268 49.5616 140.799 48.1024 140.799 46.2589V44.9235C140.799 43.7444 141.007 42.6956 141.424 41.7901C141.848 40.8781 142.441 40.1746 143.209 39.686C143.978 39.1909 144.857 38.9499 145.854 38.9499C146.851 38.9499 147.73 39.1909 148.492 39.673C149.261 40.1551 149.847 40.8325 150.264 41.712C150.681 42.5914 150.896 43.6076 150.916 44.7671V46.3175L150.909 46.311ZM149.815 44.9039C149.815 43.3405 149.463 42.1224 148.753 41.2364C148.049 40.3505 147.079 39.9075 145.848 39.9075C144.616 39.9075 143.678 40.3505 142.962 41.2429C142.252 42.1289 141.893 43.3666 141.893 44.956V46.311C141.893 47.8484 142.252 49.0665 142.962 49.972C143.672 50.871 144.642 51.314 145.867 51.314C147.092 51.314 148.075 50.871 148.772 49.985C149.469 49.0926 149.815 47.8549 149.815 46.2719V44.8974V44.9039ZM158.544 46.6954H154.779V52.0957H153.671V39.1258H157.886C159.267 39.1258 160.348 39.458 161.13 40.129C161.905 40.8 162.296 41.738 162.296 42.9431C162.296 43.777 162.055 44.5066 161.566 45.145C161.078 45.7834 160.426 46.2198 159.606 46.4608L162.85 51.9719V52.0891H161.684L158.55 46.6888L158.544 46.6954ZM154.779 45.7573H158.133C159.052 45.7573 159.795 45.4967 160.348 44.9756C160.902 44.4545 161.189 43.777 161.189 42.9431C161.189 42.0312 160.895 41.3211 160.316 40.813C159.736 40.3114 158.915 40.0573 157.866 40.0573H154.779V45.7573ZM173.39 40.0573H168.947V52.0891H167.853V40.0573H163.416V39.1193H173.39V40.0573ZM176.855 52.0957H175.761V39.1258H176.855V52.0957ZM189.337 39.1258V47.9787C189.337 48.8516 189.141 49.6137 188.757 50.2586C188.379 50.9036 187.838 51.4052 187.148 51.7569C186.457 52.1022 185.669 52.2715 184.77 52.2715C183.402 52.2715 182.308 51.9002 181.487 51.1576C180.666 50.4085 180.243 49.3792 180.21 48.0568V39.1258H181.298V47.9005C181.298 48.9949 181.611 49.8417 182.236 50.4476C182.861 51.0469 183.708 51.3465 184.777 51.3465C185.845 51.3465 186.692 51.0469 187.304 50.441C187.93 49.8352 188.242 48.9949 188.242 47.9135V39.1323H189.35L189.337 39.1258ZM193.871 39.1258L198.652 50.5713L203.453 39.1258H204.912V52.0957H203.818V46.4478L203.909 40.6566L199.082 52.0891H198.235L193.428 40.6957L193.519 46.4022V52.0826H192.424V39.1128H193.877L193.871 39.1258Z" fill="#F1B40D"/>
<defs>
<linearGradient id="paint0_linear_2733_32" x1="55.6906" y1="26.5533" x2="19.289" y2="62.9549" gradientUnits="userSpaceOnUse">
<stop stop-color="#FFCC00"/>
<stop offset="1" stop-color="white"/>
</linearGradient>
<linearGradient id="paint1_linear_2733_32" x1="56.0835" y1="17.7461" x2="19.6754" y2="54.1476" gradientUnits="userSpaceOnUse">
<stop stop-color="#FFCC00"/>
<stop offset="1" stop-color="white"/>
</linearGradient>
<linearGradient id="paint2_linear_2733_32" x1="56.0835" y1="44.6694" x2="19.6819" y2="8.26784" gradientUnits="userSpaceOnUse">
<stop stop-color="#FFCC00"/>
<stop offset="1" stop-color="white"/>
</linearGradient>
</defs>
</svg>
