<svg width="126" height="42" viewBox="0 0 126 42" fill="none" xmlns="http://www.w3.org/2000/svg">
<g clip-path="url(#clip0_2930_38)">
<path d="M55.6375 17.202C53.8089 13.8267 50.6497 11.3934 47.2701 9.69632C43.6041 7.85897 39.4416 6.36484 35.3331 6.03914C31.7767 5.75579 27.9998 6.59122 25.3226 9.06537C23.4896 10.7712 22.0495 13.5667 21.0549 15.7853C20.2282 17.6314 19.5535 19.5841 19.4775 21.6216C19.3315 25.619 21.5763 29.3303 23.4838 32.688C25.308 35.8954 27.5484 38.85 31.1531 40.1192C34.6028 41.3344 38.5697 41.2015 42.1085 40.4464C49.0797 38.9537 55.2694 34.1515 56.8585 26.9686C57.5873 23.6824 57.2558 20.1829 55.6346 17.2049L55.6375 17.202Z" fill="#DCE5F2"/>
<mask id="mask0_2930_38" style="mask-type:luminance" maskUnits="userSpaceOnUse" x="0" y="0" width="30" height="32">
<path d="M21.1051 29.5889C23.7516 27.9151 25.5582 25.2116 26.753 22.3694C28.047 19.2848 29.0329 15.8175 29.0738 12.4568C29.1088 9.54739 28.2223 6.51969 26.0621 4.47786C24.5738 3.08013 22.2195 2.06214 20.3602 1.37423C18.812 0.801696 17.1864 0.359153 15.5258 0.410272C12.2644 0.511049 9.3682 2.54119 6.74215 4.27777C4.23149 5.9384 1.95014 7.92327 1.11617 10.9261C0.317257 13.8005 0.642956 17.0209 1.45209 19.8588C3.04992 25.4482 7.29716 30.2213 13.2284 31.121C15.9421 31.5343 18.7711 31.0713 21.1051 29.5889Z" fill="white"/>
</mask>
<g mask="url(#mask0_2930_38)">
<path d="M3.75 30.5556C11.2089 26.155 18.2604 21.994 25.3148 17.8314C26.3562 17.2166 27.4107 16.6908 28.4403 15.959C33.1827 12.5852 36.4704 12.0229 39.9318 11.0662C40.7337 10.8442 40.9907 11.4226 41.6801 11.7089C37.6008 14.0968 33.9889 16.2468 30.4018 18.3047C23.4132 22.3153 16.4362 26.2865 9.46069 30.2533C5.02797 32.7742 5.03235 32.7596 3.75 30.5556Z" fill="#DCE5F2"/>
<path d="M6.28711 33.9386C9.7924 31.8792 12.7806 30.093 15.7455 28.39C23.5112 23.9295 31.274 19.4792 39.0163 15.0947C40.1949 14.4273 42.1564 12.7126 42.2119 13.9424C42.2426 14.6084 39.3887 17.7602 37.9647 18.6497C36.0426 19.8517 34.1293 21.0011 32.216 22.1506C26.0701 25.8457 19.9358 29.4825 13.7767 33.2463C11.2281 34.8032 10.0173 34.6615 8.80216 34.4439C8.04414 34.3081 7.31095 34.1445 6.28711 33.9386Z" fill="#DCE5F2"/>
<path d="M27.5667 9.26578C25.408 10.646 23.2771 11.4011 21.2017 12.625C18.8006 14.0417 16.3279 15.7622 13.8873 17.3338C10.7618 19.3464 7.63328 21.3838 4.51796 23.3322C2.7069 24.4641 1.93865 25.098 1.30916 23.6783C1.00537 22.9948 0.631475 22.323 1.47858 21.6453C3.0472 20.7441 5.40889 19.0032 6.8183 18.1006C10.9093 15.4804 15.009 12.7813 19.1044 10.1246C20.5868 9.16354 22.0649 8.23902 23.5458 7.28383C26.6115 5.30773 27.6164 5.69185 27.6762 7.21519C27.6894 7.56279 27.7887 7.85198 27.9172 8.19667C27.9976 8.41429 28.075 8.93862 27.5667 9.26432V9.26578Z" fill="#DCE5F2"/>
<path d="M29.9574 12.9302C27.0129 14.6332 24.1926 16.2544 21.3577 17.934C16.871 20.5922 12.3827 23.2343 7.87115 26.0327C2.52705 29.3481 2.51537 29.4182 2.42773 26.1349C4.15409 25.206 5.77382 24.4728 7.43007 23.411C10.0444 21.7358 12.6968 19.7378 15.3111 18.0698C17.778 16.4954 20.2156 15.1707 22.6649 13.7408C22.8358 13.64 30.1399 10.0135 30.9578 11.6493C31.1273 11.9882 30.562 12.5797 29.9588 12.9273L29.9574 12.9302Z" fill="#DCE5F2"/>
<path d="M26.3162 3.9039C18.3051 9.03768 9.72008 14.4534 1.13943 19.9523C-2.00803 20.2546 -1.72322 18.7707 -0.80308 17.002C-0.724211 16.8516 1.91789 15.1924 5.44655 13.0425C11.1222 9.58392 19.0894 4.85617 22.3581 3.09622C25.9102 1.18438 26.1424 1.43559 26.3176 3.9039H26.3162Z" fill="#DCE5F2"/>
<path d="M21.6919 2.11348C20.8974 2.79116 9.08893 9.55199 3.52575 12.4759C1.45763 13.5626 -0.544757 15.5095 -1.01505 15.3663C-1.60657 15.1867 -2.68445 13.77 -1.50287 12.733C0.893871 10.6284 6.9361 7.35534 9.46283 5.76482C11.8976 4.23271 19.485 0.0716508 20.966 0.200178C21.9972 0.289271 22.7815 1.18457 21.6919 2.11348Z" fill="#DCE5F2"/>
<path d="M-4.11908 8.87415C-3.32455 8.19646 8.48535 1.43564 14.047 -1.48836C16.1152 -2.575 18.1176 -4.52189 18.5878 -4.37876C19.1794 -4.19911 20.2572 -2.78239 19.0757 -1.74541C16.6789 0.359226 10.6367 3.63228 8.10999 5.22135C5.67527 6.75345 -1.91221 10.9146 -3.39319 10.7875C-4.42433 10.6984 -5.20864 9.80305 -4.11908 8.87415Z" fill="#DCE5F2"/>
<path d="M37.5035 20.3306C31.7242 26.9571 19.2629 34.4204 14.373 34.1794C22.0832 29.5627 29.7934 24.9459 37.5035 20.3306Z" fill="#DCE5F2"/>
</g>
<path d="M33.6494 16.5317C33.7429 16.7113 33.7458 16.9245 33.6523 17.1057L25.9509 32.1667L25.7917 32.4763L25.7888 32.4836C25.4894 33.005 25.0527 33.4549 24.4948 33.7777C22.7976 34.7592 20.6273 34.1764 19.6473 32.4778C19.6239 32.4384 19.602 32.3975 19.5815 32.358L10.9381 15.9986C10.5437 15.2522 11.0841 14.354 11.9269 14.354H31.4309C32.091 14.354 32.6971 14.7191 33.0053 15.3048L33.6509 16.5302H33.6494V16.5317Z" fill="#0048D2"/>
<path d="M23.5494 9.553C24.5119 11.4809 23.732 13.0437 21.8055 13.0437C19.8791 13.0437 17.5393 11.4824 16.5754 9.553C15.6129 7.62509 16.9536 6.6626 18.8786 6.6626C20.8036 6.6626 22.5869 7.62509 23.548 9.553H23.5494Z" fill="#0048D2"/>
<path d="M31.7466 19.6104C31.8241 19.7565 31.8255 19.9347 31.7496 20.0822L28.7657 32.4748L28.6342 32.729L28.6313 32.7348C28.3845 33.1642 28.0252 33.5352 27.5651 33.7995C26.1689 34.6058 24.3841 34.1282 23.5764 32.7304C23.5574 32.6983 23.5384 32.6647 23.5209 32.6311L16.6199 19.3212C16.2956 18.7078 16.7396 17.9688 17.4334 17.9688L29.9166 17.8184C30.4599 17.8184 30.958 18.1192 31.2121 18.5997L31.7437 19.609L31.7466 19.6104Z" fill="#FFF1BA"/>
<path d="M30.3039 22.1121C30.3478 22.1954 30.3492 22.2962 30.3054 22.3809L29.08 29.4616L29.0055 29.6076V29.6105C28.8624 29.8559 28.6579 30.0677 28.395 30.2196C27.5976 30.6811 26.5766 30.4065 26.1166 29.6091C26.1064 29.5901 26.0961 29.5711 26.0859 29.5536L22.1673 22.007C21.9818 21.6565 22.2359 21.2344 22.6317 21.2344L29.2611 21.0898C29.5707 21.0898 29.857 21.2621 30.0016 21.5367L30.3054 22.1121H30.3039Z" fill="#FF6E70"/>
<path d="M58.859 8.93812L47.4216 31.2113C46.4561 33.0895 44.5195 34.2667 42.409 34.2565H22.6582C23.5783 34.2565 24.5583 33.4445 25.1834 32.1621C25.1849 32.1577 25.1893 32.1533 25.1893 32.1504L25.2857 31.9591L26.2496 30.0765L37.69 7.74926C38.5094 6.15289 40.1568 5.15096 41.9504 5.15973L44.9357 5.17432C45.3461 5.17578 45.6119 5.60956 45.4294 5.97762L44.5793 7.79599C43.3832 10.1869 44.2551 12.1265 46.5277 12.1308C49.0457 12.1308 51.2043 10.9858 52.8095 7.80621C53.0943 7.24244 53.8903 5.52486 53.8903 5.52486C53.9837 5.33645 54.178 5.21814 54.3883 5.21814L56.6112 5.22836C60.1764 5.22836 59.2095 8.22538 58.859 8.93666V8.93812Z" fill="#0048D2"/>
<path d="M44.4976 16.6426H45.3257L44.4479 17.1859L44.3735 18.0476L43.9134 17.516L43.0371 18.0476L43.6388 17.1859L43.1773 16.6426H44.0025L44.5809 15.8013L44.4976 16.6426Z" fill="#FFF1BA"/>
<path d="M40.2158 27.7354H41.079L40.1808 28.2597L40.1311 29.0879L39.6345 28.5781L38.7422 29.0879L39.3395 28.2597L38.8429 27.7354H39.7032L40.2786 26.9277L40.2158 27.7354Z" fill="#FFF1BA"/>
<path d="M43.2267 27.001H44.087L43.1975 27.5239L43.1537 28.3534L42.6556 27.8423L41.7676 28.3534L42.3577 27.5239L41.8567 27.001H42.7155L43.2822 26.1919L43.2267 27.001Z" fill="#FFF1BA"/>
<path d="M46.8757 17.3819H47.7068L46.8392 17.9048L46.7866 18.7344L46.3105 18.2232L45.4473 18.7344L46.0271 17.9048L45.551 17.3819H46.3806L46.9385 16.5742L46.8757 17.3819Z" fill="#FFF1BA"/>
<path d="M48.07 19.4189H48.9069L48.0379 19.9418L47.9926 20.7714L47.5091 20.2602L46.6445 20.7714L47.2214 19.9418L46.7365 19.4189H47.5705L48.124 18.6113L48.07 19.4189Z" fill="#FFF1BA"/>
<path d="M45.9977 24.9913H46.8507L45.9685 25.5156L45.9291 26.3452L45.431 25.834L44.5547 26.3452L45.136 25.5156L44.638 24.9913H45.488L46.0474 24.1836L45.9977 24.9913Z" fill="#FFF1BA"/>
<path d="M47.7946 22.1636H48.6403L47.7669 22.6865L47.726 23.5161L47.2353 23.0034L46.3633 23.5161L46.9417 22.6865L46.448 22.1636H47.2908L47.8458 21.3545L47.7946 22.1636Z" fill="#FFF1BA"/>
<path d="M41.5231 17.3888H42.3542L41.4764 17.9131L41.4077 18.7412L40.9418 18.23L40.0684 18.7412L40.6643 17.9131L40.1999 17.3888H41.0265L41.6005 16.5796L41.5231 17.3888Z" fill="#FFF1BA"/>
<path d="M38.7974 19.4263H39.6357L38.7506 19.9492L38.6761 20.7788L38.2102 20.2676L37.3281 20.7788L37.9313 19.9492L37.4639 19.4263H38.2993L38.8806 18.6172L38.7974 19.4263Z" fill="#FFF1BA"/>
<path d="M36.9683 22.1695H37.8139L36.9201 22.6938L36.847 23.522L36.3753 23.0122L35.4844 23.522L36.0934 22.6938L35.6217 22.1695H36.4644L37.0486 21.3618L36.9683 22.1695Z" fill="#FFF1BA"/>
<path d="M36.5405 24.9986H37.395L36.4938 25.5229L36.4266 26.3525L35.9476 25.8413L35.0508 26.3525L35.6598 25.5229L35.1793 24.9986H36.0308L36.6165 24.1909L36.5405 24.9986Z" fill="#FFF1BA"/>
<path d="M37.7193 27.0078H38.5781L37.6784 27.5307L37.617 28.3603L37.1292 27.8491L36.2324 28.3603L36.8386 27.5307L36.3493 27.0078H37.2066L37.7879 26.1987L37.7193 27.0078Z" fill="#FFF1BA"/>
<path d="M79.4615 12.9635C79.3972 12.9635 79.3534 12.9518 79.33 12.927C79.3111 12.9022 79.3008 12.8671 79.3008 12.8233V8.17731C79.3008 8.08383 79.3476 8.03564 79.4396 8.03564H80.9293C81.3354 8.03564 81.6698 8.10282 81.9342 8.23573C82.1985 8.36426 82.4059 8.54098 82.5578 8.76298C82.7141 8.98645 82.8222 9.24642 82.8806 9.54291C82.9449 9.84086 82.9755 10.1549 82.9755 10.4864C82.9755 10.818 82.9463 11.1437 82.8879 11.446C82.8295 11.744 82.7243 12.0054 82.5724 12.2347C82.4205 12.4582 82.2102 12.6364 81.9415 12.7693C81.6771 12.8978 81.3397 12.9621 80.9293 12.9621H79.4615V12.9635ZM82.1109 10.5405C82.1109 10.1929 82.0788 9.90658 82.016 9.67874C81.9576 9.44651 81.8743 9.26249 81.7662 9.12812C81.6581 8.99375 81.5296 8.90027 81.3777 8.84623C81.2317 8.79219 81.0695 8.76444 80.8928 8.76444H80.129V12.2289H80.8402C81.0067 12.2289 81.1659 12.207 81.3178 12.1617C81.4697 12.1164 81.6041 12.0332 81.721 11.909C81.8378 11.7849 81.9313 11.614 81.9999 11.3964C82.0729 11.1729 82.1094 10.8881 82.1094 10.5419L82.1109 10.5405Z" fill="white"/>
<path d="M84.7573 8.35421C84.7573 8.4141 84.7529 8.47106 84.7427 8.5251C84.7324 8.57476 84.7105 8.61857 84.6769 8.65947C84.6477 8.6989 84.6039 8.73103 84.5455 8.75586C84.4915 8.77631 84.4184 8.78507 84.3249 8.78507C84.2271 8.78507 84.1497 8.77339 84.0898 8.74856C84.0358 8.72373 83.9949 8.6916 83.9657 8.65216C83.9364 8.61273 83.9175 8.56745 83.9072 8.51779C83.897 8.46375 83.8926 8.40825 83.8926 8.35421C83.8926 8.23591 83.9189 8.13659 83.973 8.05627C84.0314 7.97155 84.1497 7.9292 84.3249 7.9292C84.5002 7.9292 84.6229 7.96863 84.6769 8.0475C84.731 8.12199 84.7573 8.22277 84.7573 8.35275V8.35421ZM84.7135 12.822C84.7135 12.8615 84.7032 12.8965 84.6842 12.9257C84.6696 12.9506 84.636 12.9622 84.582 12.9622H84.0606C83.9627 12.9622 83.9131 12.9155 83.9131 12.8206V9.45984C83.9131 9.36637 83.9613 9.31817 84.0606 9.31817H84.582C84.636 9.31817 84.6696 9.33277 84.6842 9.36344C84.7032 9.38827 84.7135 9.42041 84.7135 9.45984V12.8206V12.822Z" fill="white"/>
<path d="M87.1725 9.24658C87.4077 9.24658 87.6516 9.26411 87.9057 9.29916C88.1599 9.33421 88.3775 9.38095 88.5586 9.44083C88.6462 9.47004 88.7002 9.51824 88.7206 9.5825C88.7454 9.64239 88.7572 9.70665 88.7572 9.7753V12.9199C88.7572 13.1331 88.7426 13.3317 88.7134 13.5143C88.6842 13.6983 88.6156 13.8561 88.5075 13.9904C88.3994 14.1248 88.2431 14.2285 88.0372 14.303C87.8371 14.3775 87.5596 14.414 87.2076 14.414C87.0163 14.414 86.8089 14.4023 86.584 14.3775C86.3634 14.3527 86.1779 14.3074 86.026 14.2431C85.9472 14.2139 85.9019 14.1789 85.8873 14.1394C85.8727 14.1044 85.8697 14.0679 85.88 14.0284L85.9384 13.7538C85.9486 13.694 85.9675 13.6604 85.9967 13.6501C86.0303 13.6399 86.083 13.6399 86.1516 13.6501C86.3181 13.675 86.4919 13.6925 86.673 13.7027C86.8585 13.7173 87.0236 13.7246 87.1652 13.7246C87.3215 13.7246 87.4486 13.7129 87.5464 13.6881C87.6487 13.6633 87.7305 13.6238 87.7889 13.5698C87.8473 13.5201 87.8868 13.453 87.9057 13.3697C87.9306 13.285 87.9423 13.1857 87.9423 13.0718V12.8264C87.7568 12.8965 87.5873 12.9432 87.4354 12.9681C87.2879 12.9929 87.1565 13.0046 87.0396 13.0046C86.7417 13.0046 86.4963 12.9593 86.3064 12.8702C86.1151 12.7811 85.9647 12.657 85.8508 12.4978C85.7427 12.3342 85.6667 12.1414 85.6229 11.9179C85.5835 11.6901 85.5645 11.4374 85.5645 11.1599C85.5645 10.8678 85.5893 10.6049 85.6375 10.3712C85.6872 10.1332 85.7719 9.93303 85.8946 9.76945C86.0173 9.60149 86.1808 9.4715 86.3868 9.38241C86.5971 9.29332 86.8585 9.24804 87.1725 9.24804V9.24658ZM86.4014 11.0898C86.4014 11.3177 86.4131 11.509 86.4379 11.6623C86.4671 11.8157 86.5095 11.9399 86.562 12.0348C86.6205 12.1239 86.6935 12.1881 86.7826 12.2276C86.8761 12.267 86.9856 12.2875 87.1127 12.2875C87.2207 12.2875 87.3449 12.2772 87.4866 12.2582C87.6341 12.2378 87.7845 12.2057 87.9423 12.1619V10.0426C87.8298 10.0222 87.7071 10.0076 87.5757 9.9973C87.4486 9.98269 87.3259 9.97539 87.2091 9.97539C87.0922 9.97539 86.9914 9.98707 86.8936 10.0119C86.7957 10.0368 86.7096 10.0893 86.6365 10.1682C86.5635 10.2427 86.5051 10.3537 86.4598 10.5027C86.4204 10.6517 86.4014 10.8474 86.4014 11.0898Z" fill="white"/>
<path d="M90.4544 8.35421C90.4544 8.4141 90.4501 8.47106 90.4398 8.5251C90.4296 8.57476 90.4077 8.61857 90.3741 8.65947C90.3449 8.6989 90.3011 8.73103 90.2427 8.75586C90.1886 8.77631 90.1156 8.78507 90.0221 8.78507C89.9243 8.78507 89.8454 8.77339 89.787 8.74856C89.7329 8.72373 89.692 8.6916 89.6628 8.65216C89.6336 8.61273 89.6146 8.56745 89.6044 8.51779C89.5942 8.46375 89.5898 8.40825 89.5898 8.35421C89.5898 8.23591 89.6161 8.13659 89.6701 8.05627C89.7286 7.97155 89.8469 7.9292 90.0221 7.9292C90.1974 7.9292 90.3201 7.96863 90.3741 8.0475C90.4282 8.12199 90.4544 8.22277 90.4544 8.35275V8.35421ZM90.4106 12.822C90.4106 12.8615 90.4004 12.8965 90.3814 12.9257C90.3668 12.9506 90.3332 12.9622 90.2792 12.9622H89.7578C89.6599 12.9622 89.6102 12.9155 89.6102 12.8206V9.45984C89.6102 9.36637 89.6584 9.31817 89.7578 9.31817H90.2792C90.3332 9.31817 90.3668 9.33277 90.3814 9.36344C90.4004 9.38827 90.4106 9.42041 90.4106 9.45984V12.8206V12.822Z" fill="white"/>
<path d="M93.5596 12.6801C93.5743 12.7648 93.5421 12.8261 93.4647 12.8655C93.4004 12.8948 93.326 12.9196 93.2369 12.94C93.1536 12.9605 93.066 12.9751 92.9725 12.9853C92.8849 12.9999 92.7987 13.0101 92.7155 13.0145C92.6366 13.0189 92.5679 13.0218 92.5095 13.0218C92.2948 13.0218 92.1254 12.9926 92.0027 12.9327C91.8859 12.8685 91.7968 12.7823 91.7383 12.6728C91.6799 12.5632 91.6434 12.4376 91.6288 12.293C91.6142 12.1499 91.6069 11.998 91.6069 11.8402V9.9737H91.2403C91.1863 9.9737 91.1498 9.96348 91.1308 9.94449C91.1118 9.91966 91.1016 9.88315 91.1016 9.83349V9.46981C91.1016 9.42016 91.1118 9.38364 91.1308 9.35881C91.1498 9.33398 91.1863 9.3223 91.2403 9.3223H91.6142V8.55698C91.6142 8.50294 91.6259 8.46497 91.6507 8.44598C91.6799 8.42115 91.715 8.40362 91.753 8.3934L92.2452 8.25903C92.343 8.2342 92.3927 8.26341 92.3927 8.34812V9.3223H93.1784C93.2369 9.3223 93.2734 9.33398 93.288 9.35881C93.307 9.38364 93.3172 9.4187 93.3172 9.46251V9.83495C93.3172 9.88461 93.307 9.92112 93.288 9.94595C93.2734 9.9664 93.2369 9.97516 93.1784 9.97516H92.3927V11.8256C92.3927 11.925 92.4 12.0009 92.4146 12.0564C92.4292 12.1104 92.454 12.1528 92.4876 12.1835C92.527 12.2083 92.5782 12.2229 92.6424 12.2287C92.7067 12.2331 92.787 12.2361 92.8849 12.2361C92.9389 12.2361 93.0149 12.2331 93.1127 12.2287C93.215 12.2244 93.3041 12.2171 93.3771 12.2068C93.4165 12.2025 93.4457 12.2068 93.4647 12.2214C93.4837 12.2361 93.4983 12.2667 93.5085 12.3105L93.5596 12.683V12.6801Z" fill="white"/>
<path d="M96.1949 11.306H95.2996C95.1141 11.306 94.9666 11.3513 94.8585 11.4404C94.7505 11.5251 94.6964 11.6886 94.6964 11.9311C94.6964 12.0947 94.7286 12.2086 94.7914 12.2729C94.86 12.3327 94.9798 12.362 95.1507 12.362C95.2295 12.362 95.3142 12.3517 95.4077 12.3327C95.5012 12.3123 95.5932 12.286 95.6867 12.251C95.7801 12.2159 95.8707 12.1794 95.9583 12.14C96.046 12.0947 96.1248 12.0538 96.1935 12.0129V11.306H96.1949ZM96.2388 12.5401C96.0533 12.6833 95.8429 12.8001 95.6078 12.8892C95.3785 12.9783 95.1375 13.0236 94.8892 13.0236C94.6935 13.0236 94.5299 12.9987 94.397 12.9491C94.27 12.895 94.1662 12.822 94.0888 12.7329C94.0158 12.6395 93.9618 12.527 93.9267 12.3985C93.8975 12.2699 93.8829 12.1253 93.8829 11.9676C93.8785 11.5309 93.991 11.2169 94.2203 11.0241C94.4496 10.8255 94.7972 10.7262 95.2617 10.7262H96.2008V10.5334C96.2008 10.4238 96.1891 10.3333 96.1643 10.2588C96.1453 10.1799 96.1058 10.1156 96.0474 10.066C95.989 10.0163 95.9101 9.98124 95.8123 9.96225C95.7144 9.9418 95.5903 9.93304 95.4384 9.93304C95.38 9.93304 95.3069 9.93596 95.2178 9.94034C95.1346 9.94473 95.047 9.95057 94.9535 9.95495C94.8659 9.95933 94.7753 9.96663 94.6818 9.97686C94.5942 9.98708 94.5124 9.99438 94.4394 9.99877C94.3663 10.009 94.3152 10.0105 94.2846 10.0061C94.2597 9.99585 94.2437 9.96371 94.2334 9.90967L94.1677 9.63509C94.1575 9.58543 94.1633 9.546 94.1823 9.51679C94.2013 9.48174 94.2539 9.44668 94.3371 9.41309C94.416 9.38388 94.508 9.35905 94.6161 9.3386C94.7242 9.31816 94.8337 9.30355 94.9462 9.29333C95.0586 9.27872 95.1682 9.2685 95.2763 9.26412C95.3887 9.25389 95.4895 9.24951 95.5771 9.24951C95.8955 9.24951 96.1467 9.28164 96.3322 9.34591C96.5236 9.41017 96.6667 9.50218 96.766 9.62049C96.8639 9.73441 96.9267 9.87608 96.9573 10.0441C96.9865 10.212 97.0011 10.4005 97.0011 10.6093V12.0436C97.0011 12.118 97.0041 12.1779 97.0085 12.2217C97.0187 12.2612 97.0304 12.2933 97.045 12.3181C97.064 12.3386 97.0917 12.3532 97.1253 12.3634C97.1589 12.3736 97.2056 12.3809 97.2641 12.3853C97.3181 12.3897 97.3546 12.3999 97.3736 12.4145C97.3926 12.4291 97.4028 12.4569 97.4028 12.4963V12.8089C97.4028 12.8936 97.3444 12.9447 97.2261 12.9652C97.1677 12.9754 97.1092 12.9827 97.0493 12.9871C96.9909 12.9973 96.934 13.0017 96.8799 13.0017C96.709 13.0017 96.5688 12.9695 96.4622 12.9053C96.36 12.841 96.2884 12.7212 96.249 12.5489L96.2344 12.5416L96.2388 12.5401Z" fill="white"/>
<path d="M98.8233 12.0419C98.8233 12.1558 98.8482 12.2274 98.8964 12.2581C98.9504 12.2829 99.041 12.2946 99.168 12.2946C99.2221 12.299 99.2557 12.3063 99.2703 12.3165C99.2892 12.3267 99.3039 12.3515 99.3141 12.391L99.3433 12.7707C99.3477 12.8306 99.317 12.8773 99.2483 12.9124C99.1797 12.9474 99.0994 12.9694 99.0059 12.9796C98.9124 12.9942 98.835 13.0015 98.7708 13.0015C98.4918 13.0015 98.2961 12.9401 98.1836 12.816C98.0755 12.6875 98.0215 12.4961 98.0215 12.2435V7.86481C98.0215 7.77133 98.0682 7.72314 98.1603 7.72314H98.6817C98.7751 7.72314 98.8204 7.76987 98.8204 7.86481V12.0434L98.8233 12.0419Z" fill="white"/>
<path d="M102.133 8.17583C102.133 8.07652 102.179 8.02686 102.271 8.02686H102.829C102.923 8.02686 102.968 8.07652 102.968 8.17583V12.8218C102.968 12.9153 102.921 12.9635 102.829 12.9635H102.271C102.178 12.9635 102.133 12.9168 102.133 12.8218V8.17583Z" fill="white"/>
<path d="M107.06 12.8218C107.06 12.8671 107.05 12.9007 107.031 12.9255C107.016 12.9504 106.983 12.962 106.929 12.962H106.4C106.312 12.962 106.268 12.9168 106.268 12.8277V12.5896H106.254C106.254 12.5896 106.251 12.5823 106.247 12.5823C106.182 12.6276 106.108 12.6758 106.019 12.7313C105.931 12.7809 105.835 12.8277 105.732 12.8729C105.63 12.9182 105.522 12.9518 105.41 12.9766C105.302 13.0059 105.195 13.0219 105.087 13.0219C104.847 13.0219 104.649 12.9796 104.492 12.8949C104.341 12.8058 104.218 12.6816 104.126 12.5224C104.038 12.3632 103.974 12.1734 103.935 11.9499C103.901 11.722 103.883 11.4665 103.883 11.1846C103.883 10.8822 103.902 10.612 103.942 10.374C103.986 10.1315 104.062 9.92562 104.17 9.75765C104.278 9.58969 104.424 9.46263 104.609 9.37791C104.801 9.28882 105.045 9.24355 105.343 9.24355C105.64 9.24355 105.949 9.30051 106.252 9.41443H106.26C106.26 9.41443 106.263 9.40713 106.267 9.40713V7.86772C106.267 7.81806 106.274 7.78155 106.289 7.75672C106.308 7.73189 106.347 7.72021 106.406 7.72021H106.927C106.986 7.72021 107.022 7.73481 107.037 7.76548C107.051 7.79031 107.059 7.82536 107.059 7.86918V12.8204L107.06 12.8218ZM106.26 10.0862C106.089 10.0366 105.934 10.0045 105.798 9.98988C105.667 9.96943 105.538 9.96067 105.417 9.96067C105.286 9.96067 105.173 9.98112 105.08 10.0205C104.986 10.06 104.913 10.1271 104.859 10.2206C104.805 10.3141 104.766 10.4412 104.742 10.6004C104.717 10.7537 104.706 10.948 104.706 11.1802C104.706 11.4124 104.716 11.611 104.735 11.76C104.76 11.9032 104.796 12.0156 104.844 12.0945C104.894 12.169 104.953 12.2215 105.021 12.2508C105.09 12.2756 105.173 12.2873 105.271 12.2873C105.344 12.2873 105.427 12.2756 105.521 12.2508C105.614 12.2259 105.706 12.1967 105.8 12.1617C105.893 12.1266 105.978 12.0916 106.057 12.058C106.14 12.0185 106.209 11.9835 106.263 11.9543V10.0877L106.26 10.0862Z" fill="white"/>
<path d="M108.61 11.3644C108.615 11.5528 108.635 11.7091 108.669 11.8332C108.708 11.9574 108.764 12.0567 108.838 12.1312C108.911 12.2013 109.002 12.2495 109.11 12.2802C109.218 12.3094 109.346 12.3254 109.498 12.3254C109.63 12.3254 109.787 12.3152 109.968 12.2962C110.15 12.2758 110.31 12.2597 110.453 12.2436C110.522 12.2334 110.569 12.2363 110.592 12.2509C110.621 12.2612 110.64 12.3006 110.651 12.3692L110.694 12.6146C110.705 12.6687 110.702 12.7139 110.687 12.749C110.677 12.784 110.639 12.8162 110.57 12.8454C110.497 12.8746 110.411 12.9023 110.313 12.9272C110.215 12.9476 110.113 12.9637 110.005 12.9797C109.897 12.9944 109.79 13.0075 109.682 13.0163C109.574 13.0265 109.476 13.0309 109.389 13.0309C109.037 13.0309 108.755 12.9783 108.544 12.8746C108.334 12.7709 108.172 12.6321 108.06 12.4583C107.947 12.2845 107.871 12.0859 107.832 11.8639C107.798 11.6361 107.781 11.4009 107.781 11.157C107.781 10.9788 107.795 10.7773 107.824 10.5553C107.854 10.3318 107.919 10.1244 108.023 9.93011C108.131 9.73732 108.287 9.5752 108.493 9.44667C108.704 9.31231 108.987 9.24658 109.345 9.24658C109.672 9.24658 109.936 9.29624 110.138 9.39556C110.344 9.49487 110.503 9.6234 110.615 9.7826C110.728 9.93595 110.804 10.1142 110.843 10.3172C110.887 10.5158 110.912 10.713 110.916 10.9116C110.921 11.046 110.899 11.1541 110.851 11.2388C110.802 11.3235 110.705 11.3659 110.557 11.3659H108.613L108.61 11.3644ZM109.343 9.91405C109.206 9.91405 109.094 9.93449 109.006 9.97393C108.918 10.0134 108.844 10.0733 108.785 10.1522C108.731 10.2266 108.692 10.3201 108.669 10.434C108.644 10.5436 108.628 10.6663 108.617 10.8065H110.071C110.071 10.6926 110.06 10.583 110.042 10.4793C110.023 10.3698 109.986 10.2734 109.932 10.1887C109.884 10.104 109.809 10.0382 109.711 9.98853C109.618 9.93888 109.497 9.91405 109.345 9.91405H109.343Z" fill="white"/>
<path d="M114.685 12.822C114.685 12.8673 114.674 12.9009 114.655 12.9257C114.636 12.9506 114.598 12.9622 114.546 12.9622H114.017C113.924 12.9622 113.878 12.9155 113.878 12.8206L113.886 10.732C113.886 10.5144 113.849 10.3377 113.776 10.2047C113.707 10.0704 113.569 10.0047 113.358 10.0047C113.285 10.0047 113.199 10.0163 113.101 10.0412C113.008 10.066 112.913 10.0981 112.815 10.1376C112.722 10.1726 112.634 10.2091 112.551 10.2486C112.467 10.2836 112.402 10.3128 112.352 10.3377V12.8206C112.352 12.914 112.305 12.9622 112.213 12.9622H111.692C111.598 12.9622 111.553 12.9155 111.553 12.8206V9.46713C111.553 9.36782 111.6 9.31816 111.692 9.31816H112.213C112.307 9.31816 112.352 9.36782 112.352 9.46713V9.6906C112.352 9.6906 112.359 9.69352 112.359 9.6979H112.374C112.443 9.64824 112.523 9.59858 112.616 9.54892C112.714 9.49488 112.817 9.44523 112.925 9.39995C113.033 9.35467 113.145 9.32108 113.262 9.29625C113.379 9.26704 113.494 9.25098 113.607 9.25098C113.856 9.25098 114.052 9.29041 114.194 9.36928C114.335 9.44377 114.444 9.54454 114.517 9.67453C114.59 9.80306 114.636 9.95495 114.655 10.1273C114.674 10.2953 114.685 10.4749 114.685 10.6619V12.8176V12.822Z" fill="white"/>
<path d="M117.696 12.6801C117.711 12.7648 117.679 12.8261 117.601 12.8655C117.537 12.8948 117.462 12.9196 117.373 12.94C117.29 12.9605 117.203 12.9751 117.109 12.9853C117.021 12.9999 116.935 13.0101 116.852 13.0145C116.773 13.0189 116.704 13.0218 116.646 13.0218C116.431 13.0218 116.262 12.9926 116.139 12.9327C116.022 12.8685 115.933 12.7823 115.875 12.6728C115.816 12.5632 115.78 12.4376 115.765 12.293C115.751 12.1499 115.743 11.998 115.743 11.8402V9.9737H115.377C115.323 9.9737 115.286 9.96348 115.267 9.94449C115.248 9.91966 115.238 9.88315 115.238 9.83349V9.46981C115.238 9.42016 115.248 9.38364 115.267 9.35881C115.286 9.33398 115.324 9.3223 115.377 9.3223H115.751V8.55698C115.751 8.50294 115.762 8.46497 115.787 8.44598C115.816 8.42115 115.852 8.40362 115.889 8.3934L116.382 8.25903C116.48 8.2342 116.529 8.26341 116.529 8.34812V9.3223H117.315C117.373 9.3223 117.41 9.33398 117.425 9.35881C117.444 9.38364 117.454 9.4187 117.454 9.46251V9.83495C117.454 9.88461 117.444 9.92112 117.425 9.94595C117.41 9.9664 117.373 9.97516 117.315 9.97516H116.529V11.8256C116.529 11.925 116.537 12.0009 116.551 12.0564C116.566 12.1119 116.591 12.1528 116.624 12.1835C116.664 12.2083 116.715 12.2229 116.779 12.2287C116.843 12.2331 116.924 12.2361 117.021 12.2361C117.075 12.2361 117.151 12.2331 117.249 12.2287C117.351 12.2244 117.441 12.2171 117.514 12.2068C117.553 12.2025 117.582 12.2068 117.601 12.2214C117.62 12.2361 117.635 12.2667 117.645 12.3105L117.696 12.683V12.6801Z" fill="white"/>
<path d="M119.056 8.35421C119.056 8.4141 119.052 8.47106 119.041 8.5251C119.031 8.57476 119.009 8.61857 118.976 8.65947C118.946 8.6989 118.903 8.73103 118.844 8.75586C118.79 8.77631 118.717 8.78507 118.624 8.78507C118.526 8.78507 118.447 8.77339 118.388 8.74856C118.334 8.72373 118.294 8.6916 118.264 8.65216C118.235 8.61273 118.216 8.56745 118.206 8.51779C118.196 8.46375 118.191 8.40825 118.191 8.35421C118.191 8.23591 118.218 8.13659 118.272 8.05627C118.33 7.97155 118.448 7.9292 118.624 7.9292C118.799 7.9292 118.922 7.96863 118.976 8.0475C119.03 8.12199 119.056 8.22277 119.056 8.35275V8.35421ZM119.012 12.822C119.012 12.8615 119.002 12.8965 118.983 12.9257C118.968 12.9506 118.935 12.9622 118.881 12.9622H118.359C118.261 12.9622 118.212 12.9155 118.212 12.8206V9.45984C118.212 9.36637 118.26 9.31817 118.359 9.31817H118.881C118.935 9.31817 118.968 9.33277 118.983 9.36344C119.002 9.38827 119.012 9.42041 119.012 9.45984V12.8206V12.822Z" fill="white"/>
<path d="M122.16 12.6801C122.174 12.7648 122.142 12.8261 122.065 12.8655C122 12.8948 121.926 12.9196 121.837 12.94C121.754 12.9605 121.666 12.9751 121.572 12.9853C121.485 12.9999 121.399 13.0101 121.315 13.0145C121.236 13.0189 121.168 13.0218 121.109 13.0218C120.895 13.0218 120.725 12.9926 120.603 12.9327C120.486 12.8685 120.397 12.7823 120.338 12.6728C120.28 12.5632 120.243 12.4376 120.229 12.293C120.214 12.1499 120.207 11.998 120.207 11.8402V9.9737H119.84C119.786 9.9737 119.75 9.96348 119.731 9.94449C119.712 9.91966 119.701 9.88315 119.701 9.83349V9.46981C119.701 9.42016 119.712 9.38364 119.731 9.35881C119.75 9.33398 119.786 9.3223 119.84 9.3223H120.214V8.55698C120.214 8.50294 120.226 8.46497 120.251 8.44598C120.28 8.42115 120.315 8.40362 120.353 8.3934L120.845 8.25903C120.943 8.2342 120.993 8.26341 120.993 8.34812V9.3223H121.778C121.837 9.3223 121.873 9.33398 121.888 9.35881C121.907 9.38364 121.917 9.4187 121.917 9.46251V9.83495C121.917 9.88461 121.907 9.92112 121.888 9.94595C121.873 9.9664 121.837 9.97516 121.778 9.97516H120.993V11.8256C120.993 11.925 121 12.0009 121.014 12.0564C121.029 12.1104 121.054 12.1528 121.088 12.1835C121.127 12.2083 121.178 12.2229 121.242 12.2287C121.307 12.2331 121.387 12.2361 121.485 12.2361C121.539 12.2361 121.615 12.2331 121.713 12.2287C121.815 12.2244 121.904 12.2171 121.977 12.2068C122.016 12.2025 122.046 12.2068 122.065 12.2214C122.084 12.2361 122.098 12.2667 122.108 12.3105L122.16 12.683V12.6801Z" fill="white"/>
<path d="M124.004 11.9221C124.058 11.7687 124.106 11.6241 124.152 11.4912C124.2 11.3568 124.242 11.2414 124.276 11.1421C124.315 11.0238 124.352 10.9143 124.385 10.815L124.841 9.44641C124.856 9.40113 124.875 9.369 124.9 9.35001C124.924 9.32956 124.964 9.3208 125.016 9.3208H125.56C125.618 9.3208 125.65 9.33541 125.655 9.36608C125.659 9.39529 125.655 9.43034 125.64 9.46978L123.93 14.1976C123.911 14.2472 123.889 14.2823 123.864 14.3013C123.839 14.3217 123.795 14.3305 123.733 14.3305H123.233C123.175 14.3305 123.14 14.3159 123.131 14.2852C123.126 14.256 123.131 14.2209 123.145 14.1815L123.608 12.9254L122.325 9.46831C122.31 9.42888 122.306 9.39383 122.31 9.36462C122.32 9.33541 122.351 9.31934 122.405 9.31934H122.97C123.02 9.31934 123.053 9.32372 123.072 9.33395C123.091 9.34417 123.112 9.3763 123.131 9.43034L123.608 10.8135L123.975 11.9206H124.004V11.9221Z" fill="white"/>
<path d="M68.148 8.18756C68.148 8.0897 68.1976 8.04004 68.2984 8.04004H71.0588C71.1538 8.04004 71.202 8.08678 71.202 8.18025V8.63594C71.202 8.72357 71.1523 8.76885 71.0515 8.76885H69.0039V10.0322H70.8193C70.9186 10.0322 70.9697 10.076 70.9697 10.1651V10.6208C70.9697 10.7085 70.9201 10.7537 70.8193 10.7537H69.0039V12.2011H71.1041C71.1947 12.2011 71.2385 12.2479 71.2385 12.3413V12.7897C71.2385 12.8774 71.1903 12.9226 71.0953 12.9226H68.297C68.1976 12.9226 68.1465 12.8788 68.1465 12.7897V8.18902L68.148 8.18756Z" fill="white"/>
<path d="M73.935 12.2435C74.2651 12.2435 74.5149 12.1558 74.6858 11.9791C74.861 11.798 74.9487 11.5161 74.9487 11.1335V8.18609C74.9487 8.08823 74.9983 8.03857 75.0991 8.03857H75.6614C75.7169 8.03857 75.7519 8.05318 75.7666 8.08239C75.787 8.10722 75.7972 8.14081 75.7972 8.18463L75.7899 11.132C75.7899 11.2795 75.7797 11.4256 75.7593 11.5731C75.7446 11.7148 75.7096 11.8579 75.6541 11.9996C75.5796 12.1763 75.4817 12.3253 75.362 12.448C75.2466 12.5706 75.1152 12.6714 74.9647 12.7488C74.8143 12.8277 74.6522 12.8832 74.4769 12.9182C74.3016 12.9577 74.122 12.9767 73.9365 12.9767C73.1464 12.9767 72.606 12.705 72.3168 12.1602C72.2364 12.0127 72.1795 11.8535 72.1444 11.6826C72.1094 11.5059 72.0918 11.3219 72.0918 11.132V8.18463C72.0918 8.08677 72.14 8.03711 72.235 8.03711H72.7973C72.8922 8.03711 72.9404 8.08677 72.9404 8.18463V11.132C72.9404 11.4942 73.0222 11.7717 73.1872 11.9631C73.3567 12.1485 73.6079 12.242 73.938 12.242L73.935 12.2435Z" fill="white"/>
<path d="M76.568 24.2024L76.1284 25.6922L74.5992 30.8303C74.5568 30.9837 74.494 31.0962 74.4108 31.1663C74.3407 31.2364 74.2078 31.2714 74.0135 31.2714H72.5062C72.3105 31.2714 72.1718 31.2364 72.0871 31.1663C72.0038 31.0962 71.9468 30.991 71.9191 30.8522L68.1714 17.7644C68.1013 17.4854 68.1918 17.3452 68.443 17.3452H70.0978C70.2658 17.3452 70.3841 17.3803 70.4542 17.4504C70.5374 17.5059 70.6002 17.611 70.6426 17.7644C70.9917 19.0365 71.313 20.1976 71.6065 21.2463C71.7321 21.6932 71.8505 22.1416 71.9629 22.5885C72.0885 23.0223 72.1995 23.421 72.2974 23.7832C72.4084 24.1469 72.5004 24.4609 72.569 24.7268C72.6391 24.9926 72.6873 25.1678 72.7151 25.2511L73.3855 27.8727H73.4483L74.0559 25.7126C74.0705 25.6571 74.1114 25.5023 74.1815 25.2511C74.2516 24.9853 74.3348 24.6771 74.4327 24.328C74.5437 23.9644 74.6561 23.5802 74.7671 23.1742C74.8928 22.7682 75.0037 22.3841 75.1016 22.0204C75.2126 21.6567 75.3046 21.3485 75.3733 21.0973C75.4434 20.8315 75.4916 20.6635 75.5193 20.5934L74.6605 17.7615C74.6328 17.649 74.6328 17.5511 74.6605 17.4679C74.7029 17.3846 74.7788 17.3423 74.8913 17.3423H76.4614C76.7827 17.3423 76.9784 17.4825 77.047 17.7615C77.4239 19.0613 77.7583 20.2502 78.0519 21.3266C78.1775 21.7882 78.3031 22.2424 78.4287 22.6893C78.5543 23.1362 78.6653 23.5496 78.7632 23.9264C78.8742 24.3032 78.9662 24.6318 79.0348 24.9122C79.1049 25.1781 79.1531 25.3533 79.1809 25.4366L79.8089 27.8698H79.8922L80.4778 25.3738C80.5056 25.2905 80.5553 25.1153 80.6239 24.8494C80.694 24.5705 80.7772 24.2419 80.8751 23.8636C80.973 23.4853 81.0781 23.0734 81.1891 22.6265C81.3147 22.1796 81.4403 21.7312 81.5659 21.2843C81.8449 20.221 82.1589 19.0467 82.508 17.7615C82.5781 17.4825 82.7738 17.3423 83.0937 17.3423H84.6856C84.9369 17.3423 85.0143 17.4956 84.9164 17.8038L81.2943 30.8289C81.2519 30.9822 81.1833 31.0947 81.0854 31.1648C81.0022 31.2349 80.862 31.27 80.6662 31.27H79.2218C78.9983 31.27 78.845 31.2349 78.7617 31.1648C78.6916 31.0815 78.6361 30.9691 78.5937 30.8289L77.0646 25.6484L76.6454 24.1805L76.5621 24.201L76.568 24.2024Z" fill="white"/>
<path d="M92.2623 26.5931H89.7078C89.1776 26.5931 88.7585 26.7188 88.4518 26.9714C88.145 27.2095 87.9917 27.671 87.9917 28.356C87.9917 28.8175 88.0822 29.1389 88.2634 29.3214C88.4591 29.4894 88.8008 29.5726 89.2886 29.5726C89.5121 29.5726 89.756 29.5449 90.0218 29.4894C90.2877 29.4339 90.552 29.3565 90.8178 29.2586C91.0836 29.1608 91.3407 29.0556 91.5919 28.9446C91.8431 28.819 92.0666 28.6992 92.2623 28.5882V26.5961V26.5931ZM92.3879 30.0751C91.8577 30.4811 91.2574 30.8097 90.5871 31.0609C89.9313 31.3121 89.2463 31.4392 88.535 31.4392C87.9771 31.4392 87.5097 31.3691 87.1314 31.2289C86.7692 31.0755 86.4757 30.8725 86.2522 30.6213C86.0433 30.3555 85.89 30.0415 85.7921 29.6778C85.7089 29.3141 85.6665 28.9096 85.6665 28.4612C85.6519 27.2314 85.9732 26.3434 86.6305 25.7972C87.2863 25.2378 88.278 24.9588 89.6041 24.9588H92.2842V24.414C92.2842 24.1059 92.2492 23.8473 92.179 23.6385C92.1235 23.415 92.0111 23.2325 91.8446 23.0937C91.6766 22.9535 91.4532 22.8556 91.1742 22.8001C90.8952 22.7446 90.5389 22.7169 90.1065 22.7169C89.9386 22.7169 89.7297 22.7242 89.4785 22.7373C89.2419 22.7519 88.9907 22.7651 88.7249 22.7797C88.4737 22.7943 88.2152 22.8147 87.9508 22.8425C87.6996 22.8702 87.4688 22.8907 87.26 22.9053C87.0511 22.933 86.9036 22.9403 86.8203 22.9257C86.7502 22.898 86.702 22.8074 86.6743 22.6526L86.4859 21.8771C86.4581 21.7369 86.4713 21.6259 86.5282 21.5412C86.5837 21.4433 86.7312 21.3454 86.9679 21.2476C87.1913 21.1643 87.4557 21.0942 87.7638 21.0373C88.0706 20.9818 88.3846 20.9394 88.7059 20.9117C89.0272 20.8693 89.3412 20.8416 89.6479 20.8284C89.9693 20.8007 90.2555 20.7861 90.5067 20.7861C91.4137 20.7861 92.1323 20.8766 92.6639 21.0592C93.2087 21.2403 93.6206 21.5003 93.8996 21.8347C94.1785 22.156 94.3596 22.5548 94.4443 23.0309C94.5276 23.5056 94.5699 24.0372 94.5699 24.6243V28.6715C94.5699 28.8818 94.5772 29.0498 94.5904 29.1754C94.6181 29.2878 94.6532 29.3784 94.6955 29.4485C94.751 29.504 94.8285 29.5464 94.9263 29.5741C95.0242 29.6019 95.1571 29.6223 95.3236 29.6369C95.4769 29.6515 95.5821 29.6793 95.6376 29.7202C95.6931 29.7625 95.7208 29.8385 95.7208 29.9509V30.8316C95.7208 31.0697 95.5529 31.2157 95.2184 31.2727C95.0505 31.3005 94.884 31.3209 94.716 31.3355C94.548 31.3633 94.3874 31.3779 94.234 31.3779C93.7462 31.3779 93.3475 31.2873 93.0408 31.1047C92.7472 30.9236 92.5456 30.5877 92.4332 30.0984L92.3908 30.078L92.3879 30.0751Z" fill="white"/>
<path d="M99.7594 28.6701C99.7594 28.9915 99.8295 29.1945 99.9683 29.2777C100.122 29.3478 100.38 29.3829 100.742 29.3829C100.896 29.3975 100.993 29.4179 101.036 29.4457C101.091 29.4734 101.134 29.5435 101.161 29.656L101.245 30.7251C101.259 30.8931 101.167 31.026 100.973 31.1238C100.777 31.2217 100.547 31.2845 100.282 31.3122C100.016 31.3546 99.793 31.375 99.6119 31.375C98.8159 31.375 98.258 31.1998 97.9367 30.8507C97.63 30.487 97.4766 29.9481 97.4766 29.2354V16.8821C97.4766 16.6163 97.6095 16.4834 97.8739 16.4834H99.3607C99.6265 16.4834 99.758 16.6163 99.758 16.8821V28.6687L99.7594 28.6701Z" fill="white"/>
<path d="M105.301 28.6701C105.301 28.9915 105.371 29.1945 105.509 29.2777C105.663 29.3478 105.921 29.3829 106.284 29.3829C106.437 29.3975 106.535 29.4179 106.577 29.4457C106.633 29.4734 106.675 29.5435 106.703 29.656L106.786 30.7251C106.801 30.8931 106.709 31.026 106.514 31.1238C106.319 31.2217 106.088 31.2845 105.823 31.3122C105.558 31.3546 105.334 31.375 105.153 31.375C104.357 31.375 103.799 31.1998 103.478 30.8507C103.171 30.487 103.018 29.9481 103.018 29.2354V16.8821C103.018 16.6163 103.151 16.4834 103.415 16.4834H104.902C105.168 16.4834 105.299 16.6163 105.299 16.8821V28.6687L105.301 28.6701Z" fill="white"/>
<path d="M110.465 26.7611C110.48 27.2927 110.535 27.7324 110.633 28.0829C110.744 28.432 110.905 28.7124 111.115 28.9212C111.324 29.117 111.582 29.2572 111.889 29.3404C112.196 29.4237 112.567 29.466 112.999 29.466C113.376 29.466 113.823 29.4383 114.34 29.3828C114.857 29.3273 115.317 29.2776 115.722 29.2353C115.917 29.2075 116.05 29.2148 116.119 29.2557C116.202 29.2835 116.259 29.3959 116.287 29.5916L116.412 30.2839C116.44 30.4373 116.433 30.5629 116.392 30.6622C116.364 30.7601 116.252 30.8506 116.057 30.9353C115.849 31.0186 115.603 31.096 115.324 31.1661C115.045 31.2216 114.752 31.2712 114.445 31.3136C114.138 31.356 113.83 31.391 113.523 31.4188C113.217 31.4465 112.938 31.4611 112.685 31.4611C111.68 31.4611 110.877 31.3136 110.277 31.02C109.676 30.7265 109.216 30.335 108.895 29.8458C108.574 29.3565 108.358 28.7971 108.247 28.1676C108.149 27.525 108.1 26.8604 108.1 26.1754C108.1 25.6715 108.143 25.1063 108.226 24.4768C108.309 23.8473 108.498 23.2602 108.791 22.7154C109.098 22.1706 109.545 21.715 110.132 21.3527C110.732 20.9759 111.541 20.7861 112.561 20.7861C113.496 20.7861 114.251 20.9263 114.822 21.2052C115.408 21.4842 115.862 21.8479 116.183 22.2963C116.504 22.73 116.721 23.2325 116.832 23.8064C116.957 24.3658 117.027 24.9252 117.04 25.4846C117.055 25.8629 116.992 26.1696 116.852 26.4077C116.712 26.6457 116.433 26.764 116.014 26.764H110.465V26.7611ZM112.559 22.6716C112.168 22.6716 111.848 22.7271 111.597 22.8396C111.346 22.952 111.137 23.1185 110.969 23.3435C110.816 23.5538 110.703 23.8196 110.634 24.1409C110.564 24.4491 110.516 24.7981 110.488 25.1896H114.635C114.635 24.8683 114.607 24.5601 114.552 24.2665C114.496 23.9583 114.391 23.6867 114.238 23.4486C114.097 23.2105 113.889 23.0221 113.61 22.8819C113.344 22.7417 112.995 22.6716 112.562 22.6716H112.559Z" fill="white"/>
<path d="M125.328 30.4739C125.37 30.7119 125.28 30.8858 125.056 30.9982C124.875 31.0815 124.659 31.1516 124.408 31.2085C124.17 31.264 123.919 31.3064 123.654 31.3341C123.403 31.3765 123.159 31.4042 122.921 31.4174C122.698 31.432 122.502 31.4378 122.335 31.4378C121.72 31.4378 121.24 31.3546 120.891 31.1866C120.556 31.0041 120.305 30.7601 120.137 30.452C119.969 30.1438 119.866 29.7874 119.823 29.3829C119.781 28.9768 119.76 28.5504 119.76 28.1034V22.8397H118.713C118.56 22.8397 118.455 22.8119 118.399 22.7564C118.344 22.6863 118.316 22.5811 118.316 22.4424V21.4142C118.316 21.274 118.344 21.1688 118.399 21.1002C118.455 21.0301 118.56 20.995 118.713 20.995H119.781V18.8349C119.781 18.6815 119.816 18.5764 119.886 18.5209C119.969 18.4507 120.067 18.4026 120.18 18.3733L121.583 17.9965C121.862 17.9264 122.002 18.0111 122.002 18.2477V20.995H124.243C124.411 20.995 124.514 21.0301 124.557 21.1002C124.612 21.1703 124.64 21.2681 124.64 21.3937V22.4424C124.64 22.5826 124.612 22.6878 124.557 22.7564C124.514 22.8119 124.411 22.8397 124.243 22.8397H122.002V28.0625C122.002 28.3415 122.023 28.5591 122.065 28.7125C122.107 28.8658 122.176 28.9856 122.274 29.0688C122.385 29.139 122.532 29.1813 122.714 29.1945C122.895 29.2091 123.125 29.2149 123.404 29.2149C123.558 29.2149 123.774 29.2076 124.053 29.1945C124.346 29.1798 124.598 29.1594 124.807 29.1316C124.918 29.117 125.002 29.1317 125.058 29.174C125.113 29.2164 125.156 29.2996 125.183 29.4252L125.328 30.4739Z" fill="white"/>
</g>
<defs>
<clipPath id="clip0_2930_38">
<rect width="126" height="42" fill="white"/>
</clipPath>
</defs>
</svg>
